<?xml version="1.0" encoding="UTF-8" standalone="no"?>
<svg xmlns="http://www.w3.org/2000/svg" viewBox="0 0 800 300">
  <g transform="translate(0,-752.36216)">
    <path
      style="fill:#d40000;fill-opacity:1"
      d="M 400,752.36216 C 179.08629,752.36216 0,841.70074 0,952.36216 c 0,110.66144 179.08629,200.00004 400,200.00004 220.9137,0 400,-89.3386 400,-200.00004 0,-110.66142 -179.0863,-200 -400,-200 z m -1.4687,31.25 c 193.2924,0 350,73.85179 350,165.00004 0,91.1482 -156.7076,165 -350,165 -193.2924,0 -350,-73.8518 -350,-165 0,-91.14825 156.7076,-165.00004 350,-165.00004 z"
    />
    <path
      style="fill:#d40000;fill-opacity:1"
      d="m 398.5313,783.61216 c -193.2924,0 -350,73.85179 -350,165.00004 0,91.1482 156.7076,165 350,165 193.2924,0 350,-73.8518 350,-165 0,-91.14825 -156.7076,-165.00004 -350,-165.00004 z m 0,15.625 c 174.9566,0 316.875,66.89521 316.875,149.37504 0,82.4798 -141.9184,149.375 -316.875,149.375 -174.9566,0 -316.875,-66.8952 -316.875,-149.375 0,-82.47983 141.9184,-149.37504 316.875,-149.37504 z"
    />
    <path
      style="fill:#d40000;fill-opacity:1"
      d="m 398.5313,799.23716 c -174.9566,0 -316.875,66.89521 -316.875,149.37504 0,82.4798 141.9184,149.375 316.875,149.375 174.9566,0 316.875,-66.8952 316.875,-149.375 0,-82.47983 -141.9184,-149.37504 -316.875,-149.37504 z m 0,15.625 c 156.6208,0 283.75,59.93863 283.75,133.75004 0,73.8113 -127.1292,133.75 -283.75,133.75 -156.6208,0 -283.75,-59.9387 -283.75,-133.75 0,-73.81141 127.1292,-133.75004 283.75,-133.75004 z"
    />
    <text
      x="400"
      y="952.36218"
      style="font-size:120px;font-family:'Arial';text-anchor:middle;fill:#d40000"
      >
      <tspan>VIETTEL</tspan>
    </text>
  </g>
</svg> 